# xmcd
#
# Track frame offsets: 
#        150
#        17316
#        42033
#        61446
#        76966
#        100711
#        117422
#        134133
#        153525
#        174919
#        193909
#        215507
#        231351
#        254416
#
# Disc length: 3576 seconds
#
# Revision: 0
# Processed by: cddbd v1.5.2PL0 Copyright (c) Steve Scherf et al.
# Submitted via: ExactAudioCopy v1.3
#
DISCID=bf0df60e
DTITLE=The Black Sorrows - One Mo' Time
DYEAR=2004
DGENRE=Blues Rock
TTITLE0=Harley and Rose
TTITLE1=The Chosen Ones
TTITLE2=Dear Children
TTITLE3=Daughters Of Glory
TTITLE4=Aint Love The Strangest Thing
TTITLE5=Snake Skin Shoes
TTITLE6=Brown Eyed Girl
TTITLE7=That's What I'd Give
TTITLE8=Hold On To Me
TTITLE9=Mystified
TTITLE10=Lucky Charm
TTITLE11=Country Girls
TTITLE12=Better Times
TTITLE13=Come On Come On
EXTD=
EXTT0=
EXTT1=
EXTT2=
EXTT3=
EXTT4=
EXTT5=
EXTT6=
EXTT7=
EXTT8=
EXTT9=
EXTT10=
EXTT11=
EXTT12=
EXTT13=
PLAYORDER=
